<svg width="29" height="36" viewBox="0 0 29 36" fill="none" xmlns="http://www.w3.org/2000/svg">
<path d="M14.1394 29.5522C13.9096 29.5523 13.6836 29.4934 13.483 29.3812C10.2782 27.5882 7.60897 24.9737 5.74997 21.8067C3.89096 18.6397 2.90929 15.0347 2.90597 11.3624C2.90597 11.2131 2.90776 11.0639 2.91134 10.9146C2.98298 7.55642 4.23761 4.72567 6.54 2.72955C8.56835 0.968956 11.2675 0 14.1394 0C17.0113 0 19.7095 0.968955 21.7406 2.72866C24.043 4.72478 25.2976 7.55552 25.3692 10.9137C25.3728 11.063 25.3746 11.2122 25.3746 11.3615C25.3712 15.0342 24.3892 18.6396 22.5297 21.8068C20.6702 24.974 18.0003 27.5884 14.7949 29.3812C14.5946 29.4933 14.3689 29.5522 14.1394 29.5522ZM14.1394 2.68657C11.914 2.68657 9.84089 3.42179 8.2997 4.75791C6.58656 6.24358 5.65164 8.39194 5.59701 10.971C5.59701 11.1009 5.59701 11.2316 5.59701 11.3624C5.59985 14.4281 6.38662 17.4423 7.88255 20.1183C9.37847 22.7943 11.5339 25.0433 14.1439 26.6516C16.7538 25.0433 18.909 22.7942 20.4048 20.1182C21.9006 17.4422 22.6872 14.4281 22.6898 11.3624C22.6898 11.2316 22.6898 11.1009 22.6854 10.971C22.6307 8.39194 21.6958 6.24358 19.9827 4.75791C18.4379 3.42179 16.3675 2.68657 14.1394 2.68657Z" fill="white"/>
<path d="M14.1672 17.8567C12.8896 17.8567 11.6408 17.4779 10.5785 16.7681C9.51627 16.0583 8.68835 15.0495 8.19945 13.8692C7.71056 12.6889 7.58264 11.3901 7.83187 10.1371C8.08111 8.88414 8.69631 7.73319 9.59967 6.82983C10.503 5.92646 11.654 5.31126 12.907 5.06203C14.16 4.81279 15.4588 4.94071 16.6391 5.4296C17.8194 5.9185 18.8282 6.74642 19.538 7.80866C20.2477 8.8709 20.6266 10.1198 20.6266 11.3973C20.6247 13.1099 19.9435 14.7517 18.7326 15.9627C17.5216 17.1737 15.8797 17.8548 14.1672 17.8567ZM14.1672 7.62537C13.4209 7.62537 12.6915 7.84667 12.071 8.26127C11.4505 8.67588 10.967 9.26517 10.6814 9.95461C10.3959 10.6441 10.3212 11.4027 10.4669 12.1346C10.6125 12.8665 10.972 13.5387 11.4997 14.0663C12.0274 14.5939 12.6997 14.9532 13.4317 15.0987C14.1636 15.2441 14.9222 15.1693 15.6116 14.8836C16.301 14.5979 16.8901 14.1142 17.3046 13.4936C17.7191 12.8731 17.9402 12.1435 17.94 11.3973C17.9388 10.3971 17.5409 9.43829 16.8336 8.73114C16.1263 8.024 15.1673 7.62632 14.1672 7.62537Z" fill="white"/>
<path d="M14.1394 36C10.5152 36 7.08716 35.2782 4.48657 33.9681C1.59134 32.5075 0 30.4648 0 28.209C0 25.217 2.79851 22.6334 7.48657 21.2991C7.82676 21.21 8.18832 21.2579 8.4936 21.4324C8.79889 21.607 9.02355 21.8943 9.11934 22.2327C9.21512 22.571 9.1744 22.9335 9.00592 23.2422C8.83743 23.5508 8.55462 23.7811 8.21821 23.8836C4.85552 24.8409 2.68298 26.5388 2.68298 28.209C2.68298 30.6269 7.38627 33.3134 14.1358 33.3134C20.8854 33.3134 25.5913 30.6269 25.5913 28.209C25.5913 26.5388 23.4188 24.8409 20.0561 23.8836C19.8864 23.8353 19.7279 23.7541 19.5896 23.6445C19.4513 23.535 19.3359 23.3993 19.25 23.2452C19.0766 22.9339 19.034 22.5665 19.1315 22.2237C19.229 21.881 19.4586 21.5911 19.7699 21.4177C20.0812 21.2443 20.4486 21.2016 20.7913 21.2991C25.4794 22.6334 28.2779 25.217 28.2779 28.209C28.2779 30.4648 26.6848 32.5075 23.7913 33.9681C21.1907 35.2782 17.7627 36 14.1394 36Z" fill="white"/>
</svg>
